<svg viewBox="0 0 384 108" fill="none" xmlns="http://www.w3.org/2000/svg">
<path d="M49.5995 108C44.935 108 40.7369 107.744 37.0053 107.233C33.3773 106.722 30.2676 106.006 27.6762 105.085C25.0848 104.165 23.1672 103.193 21.9233 102.17C23.0635 100.943 24.0482 99.5625 24.8775 98.0284C25.8104 96.392 26.6396 94.5 27.3652 92.3523C28.1945 90.2045 28.8682 87.6477 29.3865 84.6818L39.9595 31.142C40.8924 26.0284 42.4472 22.1932 44.624 19.6364C46.9044 17.0795 50.4287 15.8011 55.1969 15.8011C58.0993 15.8011 60.3797 16.3636 62.0382 17.4886C63.8004 18.6136 64.8369 19.9943 65.1479 21.6307C62.4529 22.9602 60.6389 24.9545 59.706 27.6136C58.8767 30.2727 58.1511 32.8807 57.5292 35.4375L55.0414 47.5568L62.1937 47.4034C68.4131 47.1989 73.3886 46.1761 77.1202 44.3352C80.8518 42.4943 83.5469 39.9886 85.2054 36.8182C86.9675 33.6477 87.7968 30.1705 87.6931 26.3864C87.6931 20.6591 85.2572 16.3636 80.3854 13.5C75.6172 10.6364 68.5167 9.20454 59.084 9.20454C54.2122 9.20454 49.3403 9.76705 44.4685 10.892C39.7003 12.017 35.2949 13.8068 31.2523 16.2614C27.3134 18.6136 24.1519 21.7841 21.7678 25.7727C19.3837 29.7614 18.1917 34.6193 18.1917 40.3466C18.088 43.108 18.3471 45.6648 18.9691 48.017C19.591 50.267 20.7312 52.875 22.3897 55.8409C21.3532 56.7614 20.0575 57.4773 18.5026 57.9886C17.0514 58.3977 15.6003 58.6023 14.1491 58.6023C11.3504 58.6023 8.8626 57.8864 6.68582 56.4545C4.6127 55.0227 2.9542 52.9773 1.71033 50.3182C0.570109 47.6591 0 44.5398 0 40.9602C0 33.5966 2.43592 26.8466 7.30776 20.7102C12.1796 14.4716 19.1764 9.46023 28.2981 5.67614C37.5235 1.89205 48.6148 0 61.5718 0C68.1021 0 74.0105 0.562502 79.297 1.68751C84.6871 2.71023 89.2998 4.29546 93.1351 6.44318C96.9704 8.48864 99.8727 11.0966 101.842 14.267C103.915 17.4375 104.952 21.1193 104.952 25.3125C104.952 28.9943 104.071 32.4716 102.309 35.7443C100.65 39.017 98.2661 41.9318 95.1564 44.4886C92.0467 47.0455 88.2114 49.142 83.6505 50.7784C87.2785 51.8011 90.4918 53.2841 93.2906 55.2273C96.0893 57.1705 98.2661 59.6761 99.8209 62.7443C101.479 65.8125 102.205 69.392 101.998 73.4829C101.79 79.4148 100.236 84.5795 97.3332 88.9773C94.4308 93.2727 90.5437 96.8523 85.6718 99.7159C80.8 102.477 75.2544 104.523 69.035 105.852C62.8157 107.284 56.3371 108 49.5995 108ZM52.8647 97.875C59.1877 97.875 64.5778 96.8011 69.035 94.6534C73.4922 92.5057 76.9129 89.5398 79.297 85.7557C81.7847 81.8693 83.0286 77.5227 83.0286 72.7159C83.0286 66.7841 80.6445 62.7443 75.8763 60.5966C71.1081 58.3466 63.4894 57.1193 53.0201 56.9148L46.4898 90.0511C46.0752 91.892 45.5569 93.4261 44.935 94.6534C44.313 95.8807 43.6393 96.8523 42.9137 97.5682C44.3648 97.6704 45.9197 97.7727 47.5782 97.875C49.2367 97.875 50.9988 97.875 52.8647 97.875Z" fill="currentColor"/>
<path d="M141.386 107.693C135.478 107.693 130.347 106.619 125.993 104.472C121.743 102.222 118.478 98.8466 116.198 94.3466C113.917 89.8466 112.777 84.1704 112.777 77.3182C112.777 70.875 113.658 64.4829 115.42 58.142C117.286 51.6989 120.033 45.8693 123.661 40.6534C127.289 35.4375 131.902 31.2443 137.499 28.0739C143.2 24.9034 149.886 23.3182 157.557 23.3182C161.599 23.3182 165.227 23.8807 168.44 25.0057C171.654 26.1307 174.193 27.9716 176.059 30.5284C177.925 33.0852 178.858 36.5625 178.858 40.9602C178.858 46.892 177.044 51.9034 173.416 55.9943C169.892 59.983 165.175 63.0511 159.267 65.1989C153.359 67.2443 146.828 68.267 139.676 68.267C138.328 68.267 136.825 68.267 135.167 68.267C133.612 68.1648 132.316 68.0625 131.28 67.9602C131.176 69.5966 131.072 71.2329 130.969 72.8693C130.865 74.4034 130.813 75.8352 130.813 77.1648C130.813 82.6875 131.85 87.0341 133.923 90.2045C135.996 93.2727 139.78 94.8068 145.273 94.8068C149.731 94.8068 153.721 93.7841 157.246 91.7386C160.77 89.5909 163.517 86.5739 165.486 82.6875C166.937 83.0966 167.922 83.9148 168.44 85.142C168.959 86.3693 169.218 87.6477 169.218 88.9773C169.218 92.0454 168.13 95.0114 165.953 97.875C163.776 100.739 160.614 103.091 156.468 104.932C152.322 106.773 147.295 107.693 141.386 107.693ZM132.368 60.4432C135.892 60.4432 139.365 60.0852 142.786 59.3693C146.31 58.6534 149.523 57.5284 152.426 55.9943C155.328 54.358 157.608 52.3125 159.267 49.8579C161.029 47.3011 161.91 44.3352 161.91 40.9602C161.91 37.9943 161.185 35.7955 159.733 34.3636C158.386 32.8295 156.416 32.0625 153.825 32.0625C150.923 32.0625 148.228 32.983 145.74 34.8239C143.356 36.5625 141.283 38.8636 139.52 41.7273C137.758 44.5909 136.255 47.6591 135.011 50.9318C133.871 54.2045 132.99 57.375 132.368 60.4432Z" fill="currentColor"/>
<path d="M206.073 107.693C200.786 107.693 196.484 106.466 193.167 104.011C189.954 101.455 187.57 98.0284 186.015 93.7329C184.564 89.3352 183.838 84.3239 183.838 78.6989C183.838 71.1307 184.875 64.0227 186.948 57.375C189.021 50.625 191.975 44.6932 195.811 39.5795C199.75 34.4659 204.31 30.4773 209.493 27.6136C214.676 24.75 220.377 23.3182 226.596 23.3182C231.676 23.3182 237.014 24.392 242.611 26.5398L258.315 24.5455L245.877 88.6704C245.773 89.5909 245.617 90.6648 245.41 91.892C245.203 93.1193 245.099 94.1932 245.099 95.1136C245.099 96.6477 245.462 97.875 246.187 98.7954C247.017 99.7159 248.261 100.227 249.919 100.33C249.401 102.068 248.52 103.5 247.276 104.625C246.136 105.648 244.788 106.415 243.233 106.926C241.782 107.437 240.124 107.693 238.258 107.693C235.459 107.693 233.075 106.926 231.106 105.392C229.136 103.96 227.996 101.812 227.685 98.9489C224.99 101.506 221.776 103.602 218.045 105.239C214.417 106.875 210.426 107.693 206.073 107.693ZM212.914 98.4886C216.853 98.4886 220.014 97.2102 222.398 94.6534C224.886 92.0966 226.856 88.9261 228.307 85.142C229.758 81.2557 230.846 77.5227 231.572 73.9432L238.413 37.2784C236.34 35.642 234.163 34.4659 231.883 33.75C229.706 32.9318 227.685 32.5227 225.819 32.5227C222.606 32.5227 219.703 33.4432 217.112 35.2841C214.624 37.125 212.396 39.6307 210.426 42.8011C208.56 45.9716 206.954 49.6534 205.606 53.8466C204.362 58.0398 203.429 62.5398 202.807 67.3466C202.185 72.0511 201.874 76.8068 201.874 81.6136C201.874 86.3182 202.652 90.3068 204.207 93.5795C205.762 96.8523 208.664 98.4886 212.914 98.4886Z" fill="currentColor"/>
<path d="M367.674 107.693C364.461 107.693 361.869 106.773 359.9 104.932C358.034 103.193 357.101 100.278 357.101 96.1875C357.101 93.9375 357.412 91.0227 358.034 87.4432C358.76 83.8636 359.589 80.0795 360.522 76.0909C361.455 72 362.388 67.9602 363.321 63.9716C364.253 59.8807 365.031 56.25 365.653 53.0795C366.378 49.8068 366.741 47.3011 366.741 45.5625C366.741 42.1875 365.808 39.6307 363.943 37.892C362.18 36.0511 359.693 35.1307 356.479 35.1307C353.266 35.1307 350.467 35.9489 348.083 37.5852C345.803 39.2216 343.833 41.3693 342.175 44.0284C340.62 46.6875 339.324 49.6023 338.288 52.7727C337.251 55.8409 336.474 58.9091 335.955 61.9773L327.559 104.625L309.834 106.466L317.764 67.6534C318.075 66.2216 318.437 64.5341 318.852 62.5909C319.267 60.6477 319.63 58.6534 319.94 56.608C320.355 54.5625 320.666 52.6193 320.873 50.7784C321.184 48.8352 321.34 47.1477 321.34 45.7159C321.34 42.3409 320.459 39.733 318.697 37.892C317.038 36.0511 314.602 35.1307 311.389 35.1307C308.176 35.1307 305.429 35.9489 303.148 37.5852C300.971 39.1193 299.106 41.2159 297.551 43.875C296.1 46.4318 294.908 49.2955 293.975 52.4659C293.042 55.5341 292.264 58.7045 291.642 61.9773L283.246 104.625L265.521 106.466L281.38 26.3864L296.151 24.5455L294.286 38.3523C296.981 33.1364 300.505 29.3523 304.858 27C309.212 24.5455 314.188 23.3182 319.785 23.3182C325.279 23.3182 329.477 24.4943 332.379 26.8466C335.282 29.0966 337.199 32.5739 338.132 37.2784C340.931 32.267 344.662 28.6875 349.327 26.5398C353.992 24.392 358.915 23.3182 364.098 23.3182C370.732 23.3182 375.707 24.9545 379.024 28.2273C382.341 31.3977 384 35.8977 384 41.7273C384 44.5909 383.689 47.9148 383.067 51.6989C382.445 55.4829 381.668 59.5227 380.735 63.8182C379.802 68.0114 378.869 72.1023 377.936 76.0909C377.003 80.0795 376.174 83.7102 375.448 86.9829C374.826 90.2557 374.515 92.8125 374.515 94.6534C374.515 96.0852 374.826 97.3636 375.448 98.4886C376.07 99.5114 377.314 100.125 379.18 100.33C378.558 102.886 377.107 104.727 374.826 105.852C372.65 107.08 370.266 107.693 367.674 107.693Z" fill="currentColor"/>
</svg>
